<?xml version="1.0" encoding="UTF-8" standalone="no"?>
<!-- Created with Inkscape (http://www.inkscape.org/) -->

<svg
   width="200mm"
   height="200mm"
   viewBox="0 0 200 200"
   version="1.1"
   id="svg1"
   xml:space="preserve"
   inkscape:version="1.4 (86a8ad7, 2024-10-11)"
   sodipodi:docname="logo.svg"
   xmlns:inkscape="http://www.inkscape.org/namespaces/inkscape"
   xmlns:sodipodi="http://sodipodi.sourceforge.net/DTD/sodipodi-0.dtd"
   xmlns="http://www.w3.org/2000/svg"
   xmlns:svg="http://www.w3.org/2000/svg"><sodipodi:namedview
     id="namedview1"
     pagecolor="#ffffff"
     bordercolor="#000000"
     borderopacity="0.25"
     inkscape:showpageshadow="2"
     inkscape:pageopacity="0.0"
     inkscape:pagecheckerboard="0"
     inkscape:deskcolor="#d1d1d1"
     inkscape:document-units="mm"
     inkscape:zoom="0.71891835"
     inkscape:cx="288.62805"
     inkscape:cy="367.91382"
     inkscape:window-width="1920"
     inkscape:window-height="1009"
     inkscape:window-x="-8"
     inkscape:window-y="40"
     inkscape:window-maximized="1"
     inkscape:current-layer="layer1" /><defs
     id="defs1" /><g
     inkscape:label="Layer 1"
     inkscape:groupmode="layer"
     id="layer1"><path
       style="fill:#ea580c;fill-opacity:1;stroke-width:0.654678"
       d="m 15.486428,134.35461 c -5.23e-4,-0.10154 0.08934,-0.35533 0.199688,-0.56399 0.19088,-0.36093 3.394614,-8.71716 4.720148,-12.31146 l 0.624026,-1.69209 27.204572,-0.14005 c 18.138959,-0.0934 27.693377,-0.20378 28.671403,-0.33137 4.492065,-0.58588 8.517977,-3.16627 11.129717,-7.13353 1.180634,-1.7934 1.729058,-2.92608 2.487702,-5.13797 0.896451,-2.61367 1.275669,-4.32093 2.465266,-11.098714 1.962752,-11.182841 5.204431,-18.131458 11.12163,-23.839462 4.15393,-4.00709 8.99632,-6.505814 15.41042,-7.951959 l 1.69864,-0.382981 31.48142,-0.217647 c 17.31478,-0.119705 31.48169,-0.166785 31.482,-0.104637 6.6e-4,0.179489 -0.66805,1.988591 -3.13783,8.485589 l -2.3092,6.07455 -28.2873,0.233395 -28.28729,0.233395 -1.31335,0.381319 c -4.68494,1.360219 -8.08433,4.383051 -10.54591,9.377674 -1.42529,2.89201 -1.79637,4.397845 -3.69136,14.979828 -1.42817,7.97513 -4.20217,14.57685 -8.215622,19.55205 -1.417172,1.75677 -4.151963,4.34215 -6.037833,5.70799 -2.694403,1.9514 -7.277407,4.11357 -10.446383,4.92837 -3.198985,0.82252 -2.675694,0.80813 -35.503707,0.97713 -21.769341,0.11207 -30.920178,0.10458 -30.920847,-0.0254 z m 87.677322,-1.77894 c 3.54834,-3.49295 6.28162,-7.28703 8.58237,-11.91318 l 0.66934,-1.34589 25.42876,-0.13091 c 17.60447,-0.0906 25.74258,-0.1906 26.44861,-0.32488 1.40795,-0.26776 2.44917,-0.84457 3.42248,-1.89591 1.30548,-1.41015 1.5754,-2.17595 1.56377,-4.43674 -0.009,-1.70605 -0.059,-2.00903 -0.48054,-2.89643 -0.60848,-1.28114 -1.21038,-2.05143 -2.05563,-2.63078 -1.47981,-1.01426 0.008,-0.9677 -26.2931,-0.82308 l -24.16735,0.13285 0.10014,-0.56621 c 0.34692,-1.96177 1.82484,-9.029514 2.0308,-9.711729 0.57609,-1.908246 1.94539,-3.450296 3.70486,-4.17228 l 0.97612,-0.400544 21.30536,-0.109683 c 19.77591,-0.101808 21.41459,-0.08802 22.82689,0.19201 4.11745,0.816417 7.63856,2.613117 10.5569,5.386807 6.13771,5.833519 8.21791,14.846099 5.29168,22.926599 -0.58619,1.61873 -1.37358,3.12264 -2.57233,4.9132 -2.77093,4.13888 -6.98103,7.05335 -12.28939,8.50741 l -1.42387,0.39002 -32.58861,0.21824 -32.58862,0.21824 z M 34.096974,106.45864 c -2.812018,-0.29219 -4.583716,-0.78275 -6.747933,-1.86842 -2.418844,-1.2134 -3.836763,-2.23853 -5.803224,-4.19559 -4.032998,-4.013713 -6.138077,-9.051633 -6.1796,-14.789157 -0.06675,-9.222423 5.751278,-17.467126 14.401934,-20.408938 3.319898,-1.128991 1.451012,-1.065211 36.499546,-1.245644 l 31.870193,-0.164072 -1.87527,1.871758 c -3.354906,3.348639 -6.212812,7.351554 -8.254436,11.561553 l -0.652643,1.345806 -25.675819,0.132182 c -26.20018,0.134881 -26.768465,0.151005 -28.027911,0.795356 -2.569558,1.314618 -3.9515,4.522896 -3.237158,7.51529 0.486032,2.036004 1.969092,3.779649 3.782988,4.447689 l 0.988251,0.363964 24.054529,-0.115383 c 13.22999,-0.06346 24.088078,-0.08218 24.129082,-0.0416 0.08148,0.08065 -1.539968,8.536996 -1.878073,9.794686 -0.298985,1.11219 -0.947494,2.33831 -1.655619,3.13029 -0.864958,0.96736 -2.136924,1.52579 -3.977624,1.74627 -2.44162,0.29248 -39.09253,0.40126 -41.761213,0.12396 z"
       id="path1" /></g></svg>
